<?xml version="1.0" encoding="UTF-8" standalone="no"?>
<!-- Created with Inkscape (http://www.inkscape.org/) -->

<svg
   width="500.35419"
   height="500.3634"
   viewBox="0 0 500.35419 500.3634"
   version="1.1"
   id="svg1"
   inkscape:version="1.4 (86a8ad7, 2024-10-11)"
   sodipodi:docname="magnify-inside.svg"
   xmlns:inkscape="http://www.inkscape.org/namespaces/inkscape"
   xmlns:sodipodi="http://sodipodi.sourceforge.net/DTD/sodipodi-0.dtd"
   xmlns="http://www.w3.org/2000/svg"
   xmlns:svg="http://www.w3.org/2000/svg">
  <sodipodi:namedview
     id="namedview1"
     pagecolor="#ffffff"
     bordercolor="#000000"
     borderopacity="0.25"
     inkscape:showpageshadow="2"
     inkscape:pageopacity="0.0"
     inkscape:pagecheckerboard="true"
     inkscape:deskcolor="#d1d1d1"
     inkscape:document-units="mm"
     inkscape:zoom="1.5516667"
     inkscape:cx="194.62943"
     inkscape:cy="234.9087"
     inkscape:window-width="2560"
     inkscape:window-height="1369"
     inkscape:window-x="-8"
     inkscape:window-y="-8"
     inkscape:window-maximized="1"
     inkscape:current-layer="layer1" />
  <defs
     id="defs1" />
  <g
     inkscape:label="Calque 1"
     inkscape:groupmode="layer"
     id="layer1">
    <g
       id="g8"
       transform="matrix(0.48960714,0,0,0.48960714,153.11786,153.11786)" />
    <g
       id="g20"
       transform="translate(-402.14823,234.58647)">
      <rect
         style="opacity:1;fill:#bfcfda;fill-opacity:1;stroke:none;stroke-width:9.73043;stroke-linecap:round;stroke-dasharray:none;stroke-opacity:1"
         id="rect15"
         width="73.368973"
         height="39.776134"
         x="160.44485"
         y="432.09155"
         ry="0" />
      <rect
         style="opacity:1;fill:#cbd9e1;fill-opacity:1;stroke:none;stroke-width:6.88045;stroke-linecap:round;stroke-dasharray:none;stroke-opacity:1"
         id="rect20"
         width="73.368973"
         height="19.888067"
         x="160.44485"
         y="432.09155"
         ry="0" />
      <path
         id="rect16"
         style="opacity:1;fill:#7d5e4a;fill-opacity:1;stroke:none;stroke-width:22.6123;stroke-linecap:round;stroke-dasharray:none;stroke-opacity:1"
         d="m 215.18555,444.85938 c -0.4946,2.29479 -0.77149,4.67414 -0.77149,7.12109 0,18.51573 14.90614,33.42187 33.42188,33.42187 h 168.93164 c 18.51573,0 33.42187,-14.90614 33.42187,-33.42187 0,-2.44842 -0.2763,-4.82893 -0.77148,-7.125 -2.42115,8.76835 -10.40769,15.17969 -19.9668,15.17969 H 235.1543 c -9.55778,0 -17.5464,-6.40931 -19.96875,-15.17578 z" />
      <path
         id="path20"
         style="opacity:1;fill:#a1785b;fill-opacity:1;stroke:none;stroke-width:22.6123;stroke-linecap:round;stroke-dasharray:none;stroke-opacity:1"
         d="m 215.18555,444.85938 c 2.42235,8.76647 10.41097,15.17578 19.96875,15.17578 h 194.29687 c 9.55911,0 17.54565,-6.41134 19.9668,-15.17969 -3.24951,-15.06752 -16.58308,-26.29688 -32.65039,-26.29688 H 247.83594 c -16.06879,0 -29.40243,11.23118 -32.65039,26.30079 z" />
      <rect
         style="opacity:1;fill:#5e4b3f;fill-opacity:1;stroke:none;stroke-width:7.8382;stroke-linecap:round;stroke-dasharray:none;stroke-opacity:1"
         id="rect17"
         width="176.47037"
         height="10.730874"
         x="255.52625"
         y="466.50226"
         ry="5.365437" />
      <rect
         style="opacity:1;fill:#b4886a;fill-opacity:1;stroke:none;stroke-width:8.68216;stroke-linecap:round;stroke-dasharray:none;stroke-opacity:1"
         id="rect18"
         width="162.38905"
         height="14.307836"
         x="241.25703"
         y="428.52448"
         ry="7.1539178" />
    </g>
    <g
       id="g24"
       transform="rotate(45,423.81627,519.97398)"
       inkscape:transform-center-x="-100.31368"
       inkscape:transform-center-y="100.31872">
      <rect
         style="opacity:1;fill:#a6b1b7;fill-opacity:1;stroke:none;stroke-width:9.73043;stroke-linecap:round;stroke-dasharray:none;stroke-opacity:1"
         id="rect21"
         width="73.368973"
         height="39.776134"
         x="160.44485"
         y="432.09155"
         ry="0" />
      <rect
         style="opacity:1;fill:#b7c4cc;fill-opacity:1;stroke:none;stroke-width:6.88045;stroke-linecap:round;stroke-dasharray:none;stroke-opacity:1"
         id="rect22"
         width="73.368973"
         height="19.888067"
         x="160.44485"
         y="432.09155"
         ry="0" />
      <path
         id="path22"
         style="opacity:1;fill:#7d5e4a;fill-opacity:1;stroke:none;stroke-width:22.6123;stroke-linecap:round;stroke-dasharray:none;stroke-opacity:1"
         d="m 215.18555,444.85938 c -0.4946,2.29479 -0.77149,4.67414 -0.77149,7.12109 0,18.51573 14.90614,33.42187 33.42188,33.42187 h 168.93164 c 18.51573,0 33.42187,-14.90614 33.42187,-33.42187 0,-2.44842 -0.2763,-4.82893 -0.77148,-7.125 -2.42115,8.76835 -10.40769,15.17969 -19.9668,15.17969 H 235.1543 c -9.55778,0 -17.5464,-6.40931 -19.96875,-15.17578 z" />
      <path
         id="path23"
         style="opacity:1;fill:#a1785b;fill-opacity:1;stroke:none;stroke-width:22.6123;stroke-linecap:round;stroke-dasharray:none;stroke-opacity:1"
         d="m 215.18555,444.85938 c 2.42235,8.76647 10.41097,15.17578 19.96875,15.17578 h 194.29687 c 9.55911,0 17.54565,-6.41134 19.9668,-15.17969 -3.24951,-15.06752 -16.58308,-26.29688 -32.65039,-26.29688 H 247.83594 c -16.06879,0 -29.40243,11.23118 -32.65039,26.30079 z" />
      <rect
         style="opacity:1;fill:#5e4b3f;fill-opacity:1;stroke:none;stroke-width:7.8382;stroke-linecap:round;stroke-dasharray:none;stroke-opacity:1"
         id="rect23"
         width="176.47037"
         height="10.730874"
         x="255.52625"
         y="466.50226"
         ry="5.365437" />
      <rect
         style="opacity:1;fill:#b4886a;fill-opacity:1;stroke:none;stroke-width:8.68216;stroke-linecap:round;stroke-dasharray:none;stroke-opacity:1"
         id="rect24"
         width="162.38905"
         height="14.307836"
         x="241.25703"
         y="428.52448"
         ry="7.1539178" />
    </g>
    <g
       id="g14"
       transform="translate(-121.21831,-121.21831)">
      <path
         id="circle8"
         style="fill:#d6dce3;fill-opacity:1;stroke-width:0.748243"
         d="M 299.99956 121.21831 A 178.78169 178.78169 0 0 0 121.21831 299.99956 A 178.78169 178.78169 0 0 0 299.99956 478.78081 A 178.78169 178.78169 0 0 0 478.78081 299.99956 A 178.78169 178.78169 0 0 0 299.99956 121.21831 z M 299.99956 153.1187 A 146.88214 146.88214 0 0 1 446.88237 299.99956 A 146.88214 146.88214 0 0 1 299.99956 446.88237 A 146.88214 146.88214 0 0 1 153.1187 299.99956 A 146.88214 146.88214 0 0 1 299.99956 153.1187 z " />
      <circle
         style="fill:#80c9ff;fill-opacity:0.340376;stroke-width:1.25557"
         id="path1"
         cx="300"
         cy="300"
         r="300"
         transform="matrix(0.48960714,0,0,0.48960714,153.11786,153.11786)" />
      <path
         style="fill:none;fill-opacity:0.340376;stroke:#ffffff;stroke-width:45.3493;stroke-linecap:round;stroke-dasharray:none;stroke-opacity:0.274648"
         id="circle1"
         sodipodi:type="arc"
         sodipodi:cx="-409.80762"
         sodipodi:cy="109.80762"
         sodipodi:rx="216.1277"
         sodipodi:ry="216.1277"
         sodipodi:start="0.52359878"
         sodipodi:end="2.6179939"
         sodipodi:open="true"
         sodipodi:arc-type="arc"
         d="M -222.63554,217.87147 A 216.1277,216.1277 0 0 1 -409.80762,325.93532 216.1277,216.1277 0 0 1 -596.9797,217.87146"
         inkscape:transform-center-y="-14.477813"
         transform="matrix(-0.24480357,-0.42401222,0.42401222,-0.24480357,153.11786,153.11786)"
         inkscape:transform-center-x="-54.03192" />
      <path
         style="fill:none;fill-opacity:0.340376;stroke:#ffffff;stroke-width:20;stroke-linecap:round;stroke-dasharray:none;stroke-opacity:0.438967"
         id="path2"
         sodipodi:type="arc"
         sodipodi:cx="-409.80762"
         sodipodi:cy="109.80762"
         sodipodi:rx="216.1277"
         sodipodi:ry="216.1277"
         sodipodi:start="1.4907817"
         sodipodi:end="2.4731286"
         sodipodi:open="true"
         sodipodi:arc-type="arc"
         d="m -392.53269,325.24383 a 216.1277,216.1277 0 0 1 -186.88644,-81.4843"
         inkscape:transform-center-y="-14.477813"
         transform="matrix(-0.24480357,-0.42401222,0.42401222,-0.24480357,153.11786,153.11786)"
         inkscape:transform-center-x="-54.03192" />
      <path
         id="circle13"
         style="fill:#77abd2;fill-opacity:0.340376;stroke-width:1.25557"
         d="M 300,-0.00137355 A 300,300 0 0 0 74.94711,101.87 300,300 0 0 1 271.40564,28.592981 300,300 0 0 1 571.40701,328.59435 300,300 0 0 1 498.12999,525.05288 300,300 0 0 0 600.00137,300 300,300 0 0 0 300,-0.00137355 Z"
         transform="matrix(0.48960714,0,0,0.48960714,153.11786,153.11786)" />
      <path
         style="fill:none;fill-opacity:1;stroke:#c0c4cb;stroke-width:7.82451;stroke-linecap:round;stroke-dasharray:none;stroke-opacity:1"
         id="circle12"
         sodipodi:type="arc"
         sodipodi:cx="299.99994"
         sodipodi:cy="300.00006"
         sodipodi:rx="174.86"
         sodipodi:ry="174.86"
         sodipodi:start="1.0471976"
         sodipodi:end="3.3598458"
         sodipodi:open="true"
         sodipodi:arc-type="arc"
         d="M 387.42993,451.43327 A 174.86,174.86 0 0 1 196.5974,441.01047 174.86,174.86 0 0 1 129.28811,262.13858" />
      <path
         style="fill:none;fill-opacity:1;stroke:#ecedef;stroke-width:7.82451;stroke-linecap:round;stroke-dasharray:none;stroke-opacity:1"
         id="path12"
         sodipodi:type="arc"
         sodipodi:cx="299.99994"
         sodipodi:cy="300.00006"
         sodipodi:rx="174.86"
         sodipodi:ry="174.86"
         sodipodi:start="4.5386543"
         sodipodi:end="0.24230771"
         sodipodi:open="true"
         sodipodi:arc-type="arc"
         d="m 269.77329,127.77239 a 174.86,174.86 0 0 1 158.03719,52.89416 174.86,174.86 0 0 1 41.94125,161.29004" />
    </g>
    <g
       id="g29"
       transform="translate(-121.21831,-121.21831)"
       style="opacity:0.63340564">
      <path
         style="fill:none;fill-opacity:0.340376;stroke:#ffffff;stroke-width:45.3493;stroke-linecap:round;stroke-dasharray:none;stroke-opacity:0.274648"
         id="path25"
         sodipodi:type="arc"
         sodipodi:cx="-409.80762"
         sodipodi:cy="109.80762"
         sodipodi:rx="216.1277"
         sodipodi:ry="216.1277"
         sodipodi:start="0.52359878"
         sodipodi:end="2.6179939"
         sodipodi:open="true"
         sodipodi:arc-type="arc"
         d="M -222.63554,217.87147 A 216.1277,216.1277 0 0 1 -409.80762,325.93532 216.1277,216.1277 0 0 1 -596.9797,217.87146"
         inkscape:transform-center-y="-14.477813"
         transform="matrix(-0.24480357,-0.42401222,0.42401222,-0.24480357,153.11786,153.11786)"
         inkscape:transform-center-x="-54.03192" />
      <path
         style="fill:none;fill-opacity:0.340376;stroke:#ffffff;stroke-width:20;stroke-linecap:round;stroke-dasharray:none;stroke-opacity:0.438967"
         id="path26"
         sodipodi:type="arc"
         sodipodi:cx="-409.80762"
         sodipodi:cy="109.80762"
         sodipodi:rx="216.1277"
         sodipodi:ry="216.1277"
         sodipodi:start="1.4907817"
         sodipodi:end="2.4731286"
         sodipodi:open="true"
         sodipodi:arc-type="arc"
         d="m -392.53269,325.24383 a 216.1277,216.1277 0 0 1 -186.88644,-81.4843"
         inkscape:transform-center-y="-14.477813"
         transform="matrix(-0.24480357,-0.42401222,0.42401222,-0.24480357,153.11786,153.11786)"
         inkscape:transform-center-x="-54.03192" />
      <path
         id="path27"
         style="fill:#98a8b1;fill-opacity:0.34037602;stroke-width:1.25557"
         d="M 300,-0.00137355 A 300,300 0 0 0 74.94711,101.87 300,300 0 0 1 271.40564,28.592981 300,300 0 0 1 571.40701,328.59435 300,300 0 0 1 498.12999,525.05288 300,300 0 0 0 600.00137,300 300,300 0 0 0 300,-0.00137355 Z"
         transform="matrix(0.48960714,0,0,0.48960714,153.11786,153.11786)" />
      <path
         style="fill:none;fill-opacity:1;stroke:#c0c4cb;stroke-width:7.82451;stroke-linecap:round;stroke-dasharray:none;stroke-opacity:1"
         id="path28"
         sodipodi:type="arc"
         sodipodi:cx="299.99994"
         sodipodi:cy="300.00006"
         sodipodi:rx="174.86"
         sodipodi:ry="174.86"
         sodipodi:start="1.0471976"
         sodipodi:end="3.3598458"
         sodipodi:open="true"
         sodipodi:arc-type="arc"
         d="M 387.42993,451.43327 A 174.86,174.86 0 0 1 196.5974,441.01047 174.86,174.86 0 0 1 129.28811,262.13858" />
      <path
         style="fill:none;fill-opacity:1;stroke:#ecedef;stroke-width:7.82451;stroke-linecap:round;stroke-dasharray:none;stroke-opacity:1"
         id="path29"
         sodipodi:type="arc"
         sodipodi:cx="299.99994"
         sodipodi:cy="300.00006"
         sodipodi:rx="174.86"
         sodipodi:ry="174.86"
         sodipodi:start="4.5386543"
         sodipodi:end="0.24230771"
         sodipodi:open="true"
         sodipodi:arc-type="arc"
         d="m 269.77329,127.77239 a 174.86,174.86 0 0 1 158.03719,52.89416 174.86,174.86 0 0 1 41.94125,161.29004" />
    </g>
  </g>
</svg>
