<?xml version="1.0" encoding="UTF-8" standalone="yes"?>
<svg width="512" height="512" viewBox="0 0 512 512" fill="none" version="1.2" baseProfile="tiny-ps" xmlns="http://www.w3.org/2000/svg">
  <title>bimi-svg-tiny-12-ps</title>
  <rect width="512" height="512" fill="#0B2239"/>
  <path d="M271.155 236.613H190.178L164.716 192.785H296.617L335.018 126H117.132C102.94 126 90.4178 133.096 83.3219 145.618C76.226 157.723 76.226 172.332 83.3219 184.854L222.318 426.115C229.414 438.22 241.936 445.733 256.128 445.733C270.32 445.733 282.842 438.637 289.938 426.115L294.53 418.184L230.666 306.737L271.155 236.613Z" fill="#4AD295"/>
  <path d="M429.352 145.618C422.256 133.096 409.317 126 395.542 126H386.359L282.008 306.737L320.409 373.522L429.352 184.437C436.031 172.332 436.031 157.723 429.352 145.618Z" fill="#4AD295"/>
</svg>